
    <svg width="79" height="116" viewBox="0 0 79 116" fill="none" xmlns="http://www.w3.org/2000/svg">
<path d="M28.2079 91.3156C28.2933 91.3156 28.3679 91.3503 28.4319 91.4196L29.0479 92.0836C28.5786 92.6276 28.0079 93.0516 27.3359 93.3556C26.6693 93.6596 25.8613 93.8116 24.9119 93.8116C24.0906 93.8116 23.3439 93.6703 22.6719 93.3876C21.9999 93.0996 21.4266 92.6996 20.9519 92.1876C20.4773 91.6703 20.1093 91.0516 19.8479 90.3316C19.5866 89.6116 19.4559 88.8196 19.4559 87.9556C19.4559 87.0916 19.5919 86.2996 19.8639 85.5796C20.1359 84.8596 20.5173 84.2409 21.0079 83.7236C21.5039 83.2063 22.0959 82.8063 22.7839 82.5236C23.4719 82.2356 24.2319 82.0916 25.0639 82.0916C25.8799 82.0916 26.5999 82.2223 27.2239 82.4836C27.8479 82.7449 28.3973 83.0996 28.8719 83.5476L28.3599 84.2596C28.3279 84.3129 28.2853 84.3583 28.2319 84.3956C28.1839 84.4276 28.1173 84.4436 28.0319 84.4436C27.9359 84.4436 27.8186 84.3929 27.6799 84.2916C27.5413 84.1849 27.3599 84.0676 27.1359 83.9396C26.9119 83.8116 26.6319 83.6969 26.2959 83.5956C25.9599 83.4889 25.5466 83.4356 25.0559 83.4356C24.4639 83.4356 23.9226 83.5396 23.4319 83.7476C22.9413 83.9503 22.5173 84.2463 22.1599 84.6356C21.8079 85.0249 21.5333 85.4996 21.3359 86.0596C21.1386 86.6196 21.0399 87.2516 21.0399 87.9556C21.0399 88.6703 21.1413 89.3076 21.3439 89.8676C21.5519 90.4276 21.8319 90.9023 22.1839 91.2916C22.5413 91.6756 22.9599 91.9689 23.4399 92.1716C23.9253 92.3743 24.4479 92.4756 25.0079 92.4756C25.3493 92.4756 25.6559 92.4569 25.9279 92.4196C26.2053 92.3769 26.4586 92.3129 26.6879 92.2276C26.9226 92.1423 27.1386 92.0356 27.3359 91.9076C27.5386 91.7743 27.7386 91.6169 27.9359 91.4356C28.0266 91.3556 28.1173 91.3156 28.2079 91.3156ZM34.0912 85.4516C34.6832 85.4516 35.2165 85.5503 35.6912 85.7476C36.1659 85.9449 36.5712 86.2249 36.9072 86.5876C37.2432 86.9503 37.4992 87.3903 37.6752 87.9076C37.8565 88.4196 37.9472 88.9929 37.9472 89.6276C37.9472 90.2676 37.8565 90.8436 37.6752 91.3556C37.4992 91.8676 37.2432 92.3049 36.9072 92.6676C36.5712 93.0303 36.1659 93.3103 35.6912 93.5076C35.2165 93.6996 34.6832 93.7956 34.0912 93.7956C33.4939 93.7956 32.9552 93.6996 32.4752 93.5076C32.0005 93.3103 31.5952 93.0303 31.2592 92.6676C30.9232 92.3049 30.6645 91.8676 30.4832 91.3556C30.3072 90.8436 30.2192 90.2676 30.2192 89.6276C30.2192 88.9929 30.3072 88.4196 30.4832 87.9076C30.6645 87.3903 30.9232 86.9503 31.2592 86.5876C31.5952 86.2249 32.0005 85.9449 32.4752 85.7476C32.9552 85.5503 33.4939 85.4516 34.0912 85.4516ZM34.0912 92.6836C34.8912 92.6836 35.4885 92.4169 35.8832 91.8836C36.2779 91.3449 36.4752 90.5956 36.4752 89.6356C36.4752 88.6703 36.2779 87.9183 35.8832 87.3796C35.4885 86.8409 34.8912 86.5716 34.0912 86.5716C33.6859 86.5716 33.3312 86.6409 33.0272 86.7796C32.7285 86.9183 32.4779 87.1183 32.2752 87.3796C32.0779 87.6409 31.9285 87.9636 31.8272 88.3476C31.7312 88.7263 31.6832 89.1556 31.6832 89.6356C31.6832 90.5956 31.8805 91.3449 32.2752 91.8836C32.6752 92.4169 33.2805 92.6836 34.0912 92.6836ZM41.5053 91.7316C41.7666 92.0836 42.052 92.3316 42.3613 92.4756C42.6706 92.6196 43.0173 92.6916 43.4013 92.6916C44.1586 92.6916 44.74 92.4223 45.1453 91.8836C45.5506 91.3449 45.7533 90.5769 45.7533 89.5796C45.7533 89.0516 45.7053 88.5983 45.6093 88.2196C45.5186 87.8409 45.3853 87.5316 45.2093 87.2916C45.0333 87.0463 44.8173 86.8676 44.5613 86.7556C44.3053 86.6436 44.0146 86.5876 43.6893 86.5876C43.2253 86.5876 42.8173 86.6943 42.4653 86.9076C42.1186 87.1209 41.7986 87.4223 41.5053 87.8116V91.7316ZM41.4333 86.8356C41.7746 86.4143 42.1693 86.0756 42.6173 85.8196C43.0653 85.5636 43.5773 85.4356 44.1533 85.4356C44.6226 85.4356 45.0466 85.5263 45.4253 85.7076C45.804 85.8836 46.1266 86.1476 46.3933 86.4996C46.66 86.8463 46.8653 87.2783 47.0093 87.7956C47.1533 88.3129 47.2253 88.9076 47.2253 89.5796C47.2253 90.1769 47.1453 90.7343 46.9853 91.2516C46.8253 91.7636 46.5933 92.2089 46.2893 92.5876C45.9906 92.9609 45.6226 93.2569 45.1853 93.4756C44.7533 93.6889 44.2653 93.7956 43.7213 93.7956C43.2253 93.7956 42.7986 93.7129 42.4413 93.5476C42.0893 93.3769 41.7773 93.1423 41.5053 92.8436V96.4276H40.0733V85.5796H40.9293C41.132 85.5796 41.2573 85.6783 41.3053 85.8756L41.4333 86.8356ZM56.1509 85.5796L51.6309 96.0756C51.5829 96.1823 51.5216 96.2676 51.4469 96.3316C51.3776 96.3956 51.2683 96.4276 51.1189 96.4276H50.0629L51.5429 93.2116L48.1989 85.5796H49.4309C49.5536 85.5796 49.6496 85.6116 49.7189 85.6756C49.7936 85.7343 49.8443 85.8009 49.8709 85.8756L52.0389 90.9796C52.1243 91.2036 52.1963 91.4383 52.2549 91.6836C52.3296 91.4329 52.4096 91.1956 52.4949 90.9716L54.5989 85.8756C54.6309 85.7903 54.6843 85.7209 54.7589 85.6676C54.8389 85.6089 54.9269 85.5796 55.0229 85.5796H56.1509ZM29.2841 100.9V112.684H27.8601V100.9H29.2841ZM33.4173 104.58V112.684H31.9933V104.58H33.4173ZM33.7213 102.036C33.7213 102.174 33.692 102.305 33.6333 102.428C33.58 102.545 33.5053 102.652 33.4093 102.748C33.3186 102.838 33.2093 102.91 33.0813 102.964C32.9586 103.017 32.828 103.044 32.6893 103.044C32.5506 103.044 32.42 103.017 32.2973 102.964C32.18 102.91 32.076 102.838 31.9853 102.748C31.8946 102.652 31.8226 102.545 31.7693 102.428C31.716 102.305 31.6893 102.174 31.6893 102.036C31.6893 101.897 31.716 101.766 31.7693 101.644C31.8226 101.516 31.8946 101.406 31.9853 101.316C32.076 101.22 32.18 101.145 32.2973 101.092C32.42 101.038 32.5506 101.012 32.6893 101.012C32.828 101.012 32.9586 101.038 33.0813 101.092C33.2093 101.145 33.3186 101.22 33.4093 101.316C33.5053 101.406 33.58 101.516 33.6333 101.644C33.692 101.766 33.7213 101.897 33.7213 102.036ZM37.4211 105.756C37.5971 105.558 37.7837 105.38 37.9811 105.22C38.1784 105.06 38.3864 104.924 38.6051 104.812C38.8291 104.694 39.0637 104.606 39.3091 104.548C39.5597 104.484 39.8291 104.452 40.1171 104.452C40.5597 104.452 40.9491 104.526 41.2851 104.676C41.6264 104.82 41.9091 105.028 42.1331 105.3C42.3624 105.566 42.5357 105.889 42.6531 106.268C42.7704 106.646 42.8291 107.065 42.8291 107.524V112.684H41.3971V107.524C41.3971 106.91 41.2557 106.436 40.9731 106.1C40.6957 105.758 40.2717 105.588 39.7011 105.588C39.2797 105.588 38.8851 105.689 38.5171 105.892C38.1544 106.094 37.8184 106.369 37.5091 106.716V112.684H36.0771V104.58H36.9331C37.1357 104.58 37.2611 104.678 37.3091 104.876L37.4211 105.756ZM46.7509 100.9V107.836H47.1189C47.2256 107.836 47.3136 107.822 47.3829 107.796C47.4576 107.764 47.5349 107.702 47.6149 107.612L50.1749 104.868C50.2496 104.777 50.3269 104.708 50.4069 104.66C50.4923 104.606 50.6043 104.58 50.7429 104.58H52.0309L49.0469 107.756C48.9029 107.937 48.7483 108.078 48.5829 108.18C48.6789 108.244 48.7643 108.318 48.8389 108.404C48.9189 108.484 48.9936 108.577 49.0629 108.684L52.2309 112.684H50.9589C50.8363 112.684 50.7296 112.665 50.6389 112.628C50.5536 112.585 50.4789 112.51 50.4149 112.404L47.7509 109.084C47.6709 108.972 47.5909 108.9 47.5109 108.868C47.4363 108.83 47.3189 108.812 47.1589 108.812H46.7509V112.684H45.3189V100.9H46.7509Z" fill="black"/>
<circle cx="39.5" cy="39.6836" r="30" fill="#101010"/>
<path fill-rule="evenodd" clip-rule="evenodd" d="M54.562 24.6216C57.8127 27.8722 57.8126 33.1915 54.5621 36.4422L47.608 43.3964C43.5046 47.4997 36.5288 46.2957 34.2942 41.1781C36.7474 39.0459 37.9437 39.7356 40.2811 40.7244C41.657 41.3062 43.2711 40.9947 44.3881 39.8776L51.1813 33.0846C52.6504 31.6154 52.6505 29.2113 51.1813 27.742C49.7123 26.2731 47.3069 26.2742 45.839 27.742L40.9664 32.6147C39.3543 31.8397 37.5404 31.61 35.8085 31.9263C36.1646 31.3228 36.5957 30.7668 37.0914 30.2715L42.7414 24.6216C45.9922 21.3711 51.3113 21.3708 54.562 24.6216ZM24.438 54.7455L24.438 54.7455C27.6888 57.9962 33.0079 57.9962 36.2585 54.7455L42.1157 48.8884C42.6293 48.3753 43.0735 47.7972 43.4367 47.1687C41.5312 47.6438 39.488 47.4431 37.6992 46.5668L32.9009 51.3649C31.4331 52.8326 29.0278 52.8341 27.5587 51.3649C26.0895 49.8958 26.0895 47.4918 27.5587 46.0227L34.3519 39.2294C35.7439 37.8374 38.522 37.4223 40.6216 39.3448C42.6539 39.1306 43.4432 38.7424 44.7056 37.5337C42.0123 32.7844 35.2988 32.0641 31.3921 35.9708L24.438 42.925C21.1873 46.1757 21.1873 51.4948 24.438 54.7455Z" fill="#FFED10"/>
</svg>
