
    <svg width="79" height="79" viewBox="0 0 79 79" fill="none" xmlns="http://www.w3.org/2000/svg">
    <circle cx="39.5" cy="39.6836" r="29.5" fill="white" stroke="black"/>
    <path fill-rule="evenodd" clip-rule="evenodd" d="M54.2153 28.1799H24.7847C24.3493 28.1799 23.9964 28.5329 23.9964 28.9683V51.1726C23.9964 51.608 24.3493 51.961 24.7847 51.961H54.2153C54.6507 51.961 55.0037 51.608 55.0037 51.1726V28.9683C55.0037 28.5329 54.6507 28.1799 54.2153 28.1799ZM24.7847 25.6836C22.9706 25.6836 21.5 27.1542 21.5 28.9683V51.1726C21.5 52.9867 22.9706 54.4573 24.7847 54.4573H54.2153C56.0294 54.4573 57.5 52.9867 57.5 51.1726V28.9683C57.5 27.1542 56.0294 25.6836 54.2153 25.6836H24.7847ZM33.5876 34.0924C33.5876 36.1242 31.9405 37.7712 29.9088 37.7712C27.877 37.7712 26.2299 36.1242 26.2299 34.0924C26.2299 32.0606 27.877 30.4136 29.9088 30.4136C31.9405 30.4136 33.5876 32.0606 33.5876 34.0924ZM26.3613 49.7274V46.0486L32.4051 40.1362L35.2957 43.0267L44.8869 33.4354L52.6387 41.3187V49.7274H26.3613Z" fill="black"/>
    </svg>

